<?xml version="1.0" encoding="UTF-8" standalone="no"?>
<!DOCTYPE svg PUBLIC "-//W3C//DTD SVG 1.1//EN" "http://www.w3.org/Graphics/SVG/1.1/DTD/svg11.dtd">
<svg width="100%" height="100%" viewBox="0 0 674 455" version="1.1" xmlns="http://www.w3.org/2000/svg" xmlns:xlink="http://www.w3.org/1999/xlink" xml:space="preserve" xmlns:serif="http://www.serif.com/" style="fill-rule:evenodd;clip-rule:evenodd;">
    <g transform="matrix(1,0,0,1,-1417.33,-996.988)">
        <g transform="matrix(1,0,0,1,1419.45,1030.39)">
            <path d="M102.626,105.153L103.077,105.006L103.488,104.769L103.84,104.452L104.119,104.068L104.311,103.635L104.422,102.934L104.422,14.814L104.373,14.342L104.226,13.891L103.989,13.481L103.672,13.128L103.289,12.85L102.855,12.657L102.155,12.546L46.987,12.546L46.043,12.447L45.142,12.154L44.32,11.68L43.617,11.045L43.058,10.278L42.673,9.412L42.452,8.01L42.452,4.892L42.401,4.421L42.256,3.97L42.018,3.559L41.7,3.207L41.318,2.928L40.884,2.735L40.184,2.625L3.076,2.625L2.602,2.674L2.151,2.821L1.743,3.058L1.389,3.375L1.111,3.758L0.918,4.192L0.819,4.655L0.808,4.9L1.134,102.942L1.185,103.413L1.332,103.864L1.57,104.273L1.891,104.625L2.273,104.902L2.707,105.093L3.402,105.202L102.155,105.202L102.626,105.153ZM217.605,105.153L218.056,105.006L218.467,104.769L218.819,104.452L219.098,104.068L219.291,103.635L219.402,102.934L219.402,22.609L219.352,22.137L219.205,21.686L218.968,21.276L218.651,20.924L218.268,20.645L217.835,20.452L217.134,20.341L211.396,20.341L210.453,20.242L209.551,19.949L208.73,19.475L208.025,18.84L207.468,18.073L207.082,17.207L206.861,15.806L206.861,4.892L206.811,4.421L206.664,3.97L206.427,3.559L206.11,3.207L205.727,2.928L205.294,2.735L204.593,2.625L170.294,2.625L169.822,2.674L169.371,2.821L168.961,3.058L168.608,3.375L168.33,3.758L168.137,4.192L168.026,4.892L168.026,8.01L167.927,8.953L167.634,9.855L167.16,10.676L166.525,11.381L165.758,11.938L164.892,12.324L163.49,12.546L108.958,12.546L108.486,12.595L108.035,12.742L107.625,12.979L107.273,13.296L106.994,13.68L106.801,14.113L106.69,14.814L106.69,102.934L106.74,103.406L106.886,103.857L107.123,104.267L107.44,104.62L107.824,104.898L108.257,105.091L108.958,105.202L217.134,105.202L217.605,105.153ZM560.49,105.153L560.941,105.006L561.351,104.769L561.704,104.452L561.982,104.068L562.175,103.635L562.286,102.934L562.286,14.814L562.237,14.342L562.09,13.891L561.853,13.481L561.536,13.128L561.152,12.85L560.719,12.657L560.019,12.546L506.199,12.546L505.256,12.447L504.354,12.154L503.533,11.68L502.828,11.045L502.271,10.278L501.886,9.412L501.664,8.01L501.664,4.892L501.614,4.421L501.468,3.97L501.231,3.559L500.913,3.207L500.53,2.928L500.097,2.735L499.396,2.625L463.679,2.625L463.208,2.674L462.757,2.821L462.346,3.058L461.994,3.375L461.715,3.758L461.523,4.192L461.412,4.892L461.412,15.806L461.313,16.749L461.019,17.65L460.545,18.471L459.911,19.176L459.144,19.733L458.278,20.119L456.876,20.341L451.843,20.341L451.371,20.391L450.92,20.537L450.51,20.774L450.157,21.091L449.879,21.475L449.686,21.908L449.575,22.609L449.575,102.934L449.624,103.406L449.771,103.857L450.008,104.267L450.325,104.62L450.709,104.898L451.142,105.091L451.843,105.202L560.019,105.202L560.49,105.153ZM331.558,105.153L332.009,105.006L332.42,104.769L332.772,104.452L333.051,104.068L333.243,103.635L333.354,102.934L333.354,4.892L333.305,4.421L333.158,3.97L332.921,3.559L332.604,3.207L332.22,2.928L331.787,2.735L331.087,2.625L245.412,2.625L244.94,2.674L244.489,2.821L244.079,3.058L243.727,3.375L243.448,3.758L243.255,4.192L243.144,4.892L243.144,15.806L243.045,16.749L242.752,17.65L242.278,18.471L241.643,19.176L240.876,19.733L240.01,20.119L238.609,20.341L232.441,20.341L231.97,20.391L231.519,20.537L231.108,20.774L230.756,21.091L230.477,21.475L230.284,21.908L230.173,22.609L230.173,102.934L230.223,103.406L230.369,103.857L230.606,104.267L230.924,104.62L231.307,104.898L231.74,105.091L232.441,105.202L331.087,105.202L331.558,105.153ZM437.007,105.153L437.458,105.006L437.868,104.769L438.221,104.452L438.499,104.068L438.692,103.635L438.803,102.934L438.803,22.609L438.754,22.137L438.607,21.686L438.37,21.276L438.053,20.924L437.669,20.645L437.236,20.452L436.535,20.341L431.081,20.341L430.138,20.242L429.236,19.949L428.415,19.475L427.71,18.84L427.153,18.073L426.768,17.207L426.546,15.806L426.546,4.892L426.496,4.421L426.349,3.97L426.112,3.559L425.795,3.207L425.411,2.928L424.979,2.735L424.278,2.625L337.89,2.625L337.418,2.674L336.967,2.821L336.557,3.058L336.205,3.375L335.926,3.758L335.733,4.192L335.622,4.892L335.622,102.934L335.672,103.406L335.818,103.857L336.055,104.267L336.372,104.62L336.756,104.898L337.189,105.091L337.89,105.202L436.535,105.202L437.007,105.153ZM664.798,105.153L665.249,105.006L665.66,104.769L666.011,104.452L666.292,104.068L666.485,103.635L666.584,103.171L666.595,102.923L666.111,6.298L666.06,5.827L665.909,5.377L665.671,4.967L665.354,4.617L664.968,4.34L664.534,4.149L663.843,4.042L625.963,4.042L625.49,4.092L625.039,4.238L624.631,4.475L624.277,4.792L623.999,5.176L623.806,5.609L623.696,6.31L623.696,8.01L623.597,8.953L623.302,9.855L622.828,10.676L622.193,11.381L621.428,11.938L620.561,12.324L619.16,12.546L566.822,12.546L566.35,12.595L565.899,12.742L565.489,12.979L565.137,13.296L564.858,13.68L564.665,14.113L564.554,14.814L564.554,102.934L564.604,103.406L564.75,103.857L564.987,104.267L565.304,104.62L565.688,104.898L566.121,105.091L566.822,105.202L664.328,105.202L664.798,105.153ZM102.626,208.58L103.077,208.434L103.488,208.197L103.84,207.88L104.119,207.496L104.311,207.063L104.422,206.362L104.422,109.738L104.373,109.266L104.226,108.815L103.989,108.405L103.672,108.052L103.289,107.774L102.855,107.581L102.155,107.47L3.424,107.47L2.954,107.519L2.503,107.666L2.092,107.903L1.74,108.22L1.46,108.604L1.267,109.037L1.168,109.5L1.157,109.745L1.256,139.803L1.307,140.275L1.457,140.725L1.695,141.135L2.013,141.486L2.398,141.763L2.832,141.955L3.532,142.064L8.067,142.049L9.011,142.144L9.913,142.434L10.738,142.906L11.443,143.538L12.002,144.303L12.39,145.168L12.591,146.095L12.617,146.569L12.762,189.372L12.813,189.843L12.96,190.293L13.198,190.703L13.516,191.054L13.901,191.332L14.335,191.523L14.8,191.62L15.035,191.632L20.991,191.612L21.932,191.708L22.836,191.998L23.658,192.469L24.364,193.101L24.925,193.867L25.313,194.731L25.512,195.658L25.54,196.132L25.574,206.37L25.625,206.841L25.773,207.291L26.011,207.701L26.328,208.053L26.714,208.33L27.147,208.521L27.842,208.63L102.155,208.63L102.626,208.58ZM217.605,208.58L218.056,208.434L218.467,208.197L218.819,207.88L219.098,207.496L219.291,207.063L219.402,206.362L219.402,109.738L219.352,109.266L219.205,108.815L218.968,108.405L218.651,108.052L218.268,107.774L217.835,107.581L217.134,107.47L108.958,107.47L108.486,107.519L108.035,107.666L107.625,107.903L107.273,108.22L106.994,108.604L106.801,109.037L106.69,109.738L106.69,206.362L106.74,206.834L106.886,207.285L107.123,207.695L107.44,208.047L107.824,208.326L108.257,208.519L108.958,208.63L217.134,208.63L217.605,208.58ZM641.222,208.58L641.673,208.434L642.084,208.197L642.436,207.88L642.713,207.496L642.906,207.063L643.005,206.599L643.02,206.351L642.974,197.795L643.071,196.852L643.36,195.949L643.827,195.125L644.46,194.417L645.225,193.856L646.087,193.466L647.487,193.237L652.731,193.211L653.204,193.159L653.652,193.01L654.063,192.771L654.415,192.452L654.69,192.067L654.88,191.633L654.987,190.932L654.766,146.712L654.863,145.769L655.149,144.865L655.62,144.042L656.252,143.334L657.014,142.773L657.879,142.383L659.279,142.154L664.523,142.127L664.994,142.076L665.444,141.927L665.855,141.688L666.204,141.369L666.482,140.984L666.672,140.55L666.78,139.848L666.629,109.726L666.578,109.255L666.428,108.805L666.19,108.395L665.87,108.045L665.487,107.768L665.05,107.577L664.362,107.47L566.822,107.47L566.35,107.519L565.899,107.666L565.489,107.903L565.137,108.22L564.858,108.604L564.665,109.037L564.554,109.738L564.554,206.362L564.604,206.834L564.75,207.285L564.987,207.695L565.304,208.047L565.688,208.326L566.121,208.519L566.822,208.63L640.752,208.63L641.222,208.58ZM560.49,208.58L560.941,208.434L561.351,208.197L561.704,207.88L561.982,207.496L562.175,207.063L562.286,206.362L562.286,109.738L562.237,109.266L562.09,108.815L561.853,108.405L561.536,108.052L561.152,107.774L560.719,107.581L560.019,107.47L451.843,107.47L451.371,107.519L450.92,107.666L450.51,107.903L450.157,108.22L449.879,108.604L449.686,109.037L449.575,109.738L449.575,206.362L449.624,206.834L449.771,207.285L450.008,207.695L450.325,208.047L450.709,208.326L451.142,208.519L451.843,208.63L560.019,208.63L560.49,208.58ZM437.007,208.58L437.458,208.434L437.868,208.197L438.221,207.88L438.499,207.496L438.692,207.063L438.803,206.362L438.803,109.738L438.754,109.266L438.607,108.815L438.37,108.405L438.053,108.052L437.669,107.774L437.236,107.581L436.535,107.47L337.89,107.47L337.418,107.519L336.967,107.666L336.557,107.903L336.205,108.22L335.926,108.604L335.733,109.037L335.622,109.738L335.622,206.362L335.672,206.834L335.818,207.285L336.055,207.695L336.372,208.047L336.756,208.326L337.189,208.519L337.89,208.63L436.535,208.63L437.007,208.58ZM331.558,208.58L332.009,208.434L332.42,208.197L332.772,207.88L333.051,207.496L333.243,207.063L333.354,206.362L333.354,109.738L333.305,109.266L333.158,108.815L332.921,108.405L332.604,108.052L332.22,107.774L331.787,107.581L331.087,107.47L232.441,107.47L231.97,107.519L231.519,107.666L231.108,107.903L230.756,108.22L230.477,108.604L230.284,109.037L230.173,109.738L230.173,206.362L230.223,206.834L230.369,207.285L230.606,207.695L230.924,208.047L231.307,208.326L231.74,208.519L232.441,208.63L331.087,208.63L331.558,208.58ZM331.558,312.008L332.009,311.862L332.42,311.625L332.772,311.308L333.051,310.924L333.243,310.491L333.354,309.79L333.354,213.165L333.305,212.694L333.158,212.243L332.921,211.832L332.604,211.48L332.22,211.201L331.787,211.009L331.087,210.898L232.441,210.898L231.97,210.947L231.519,211.094L231.108,211.331L230.756,211.648L230.477,212.032L230.284,212.465L230.173,213.165L230.173,309.79L230.223,310.262L230.369,310.712L230.606,311.123L230.924,311.475L231.307,311.754L231.74,311.947L232.441,312.058L331.087,312.058L331.558,312.008ZM437.007,312.008L437.458,311.862L437.868,311.625L438.221,311.308L438.499,310.924L438.692,310.491L438.803,309.79L438.803,213.165L438.754,212.694L438.607,212.243L438.37,211.832L438.053,211.48L437.669,211.201L437.236,211.009L436.535,210.898L337.89,210.898L337.418,210.947L336.967,211.094L336.557,211.331L336.205,211.648L335.926,212.032L335.733,212.465L335.622,213.165L335.622,309.79L335.672,310.262L335.818,310.712L336.055,311.123L336.372,311.475L336.756,311.754L337.189,311.947L337.89,312.058L436.535,312.058L437.007,312.008ZM217.605,312.008L218.056,311.862L218.467,311.625L218.819,311.308L219.098,310.924L219.291,310.491L219.402,309.79L219.402,213.165L219.352,212.694L219.205,212.243L218.968,211.832L218.651,211.48L218.268,211.201L217.835,211.009L217.134,210.898L108.958,210.898L108.486,210.947L108.035,211.094L107.625,211.331L107.273,211.648L106.994,212.032L106.801,212.465L106.69,213.165L106.69,309.79L106.74,310.262L106.886,310.712L107.123,311.123L107.44,311.475L107.824,311.754L108.257,311.947L108.958,312.058L217.134,312.058L217.605,312.008ZM102.626,312.008L103.077,311.862L103.488,311.625L103.84,311.308L104.119,310.924L104.311,310.491L104.422,309.79L104.422,213.165L104.373,212.694L104.226,212.243L103.989,211.832L103.672,211.48L103.289,211.201L102.855,211.009L102.155,210.898L27.865,210.898L27.391,210.947L26.94,211.094L26.532,211.331L26.178,211.648L25.9,212.032L25.707,212.465L25.608,212.928L25.597,213.173L25.625,221.928L25.529,222.871L25.24,223.773L24.769,224.596L24.137,225.303L23.372,225.863L22.507,226.251L21.58,226.451L21.104,226.478L15.151,226.498L14.681,226.549L14.23,226.697L13.822,226.935L13.47,227.254L13.192,227.638L13,228.072L12.903,228.536L12.892,228.773L13.039,272.994L12.943,273.936L12.654,274.839L12.183,275.662L11.551,276.369L10.786,276.928L9.921,277.317L8.518,277.544L3.983,277.559L3.512,277.61L3.061,277.758L2.653,277.997L2.302,278.315L2.024,278.699L1.831,279.133L1.735,279.597L1.723,279.834L1.823,309.798L1.874,310.269L2.024,310.719L2.262,311.129L2.58,311.48L2.965,311.758L3.399,311.949L4.09,312.058L102.155,312.058L102.626,312.008ZM560.49,312.008L560.941,311.862L561.351,311.625L561.704,311.308L561.982,310.924L562.175,310.491L562.286,309.79L562.286,213.165L562.237,212.694L562.09,212.243L561.853,211.832L561.536,211.48L561.152,211.201L560.719,211.009L560.019,210.898L451.843,210.898L451.371,210.947L450.92,211.094L450.51,211.331L450.157,211.648L449.879,212.032L449.686,212.465L449.575,213.165L449.575,309.79L449.624,310.262L449.771,310.712L450.008,311.123L450.325,311.475L450.709,311.754L451.142,311.947L451.843,312.058L560.019,312.058L560.49,312.008ZM665.836,312.008L666.286,311.862L666.697,311.625L667.049,311.308L667.327,310.924L667.519,310.491L667.619,310.027L667.63,309.779L667.491,282.004L667.44,281.533L667.293,281.083L667.052,280.673L666.734,280.323L666.349,280.046L665.915,279.855L665.45,279.759L665.212,279.748L659.968,279.774L659.027,279.68L658.123,279.391L657.298,278.921L656.592,278.29L656.031,277.526L655.639,276.662L655.438,275.735L655.41,275.261L655.194,231.75L655.14,231.279L654.993,230.829L654.752,230.419L654.435,230.069L654.049,229.792L653.615,229.601L653.151,229.505L652.915,229.494L647.671,229.52L646.727,229.426L645.823,229.137L645.001,228.667L644.292,228.036L643.731,227.272L643.34,226.408L643.139,225.481L643.113,225.007L643.054,213.154L643,212.683L642.852,212.233L642.611,211.823L642.294,211.473L641.908,211.196L641.475,211.005L640.786,210.898L566.822,210.898L566.35,210.947L565.899,211.094L565.489,211.331L565.137,211.648L564.858,212.032L564.665,212.465L564.554,213.165L564.554,309.79L564.604,310.262L564.75,310.712L564.987,311.123L565.304,311.475L565.688,311.754L566.121,311.947L566.822,312.058L665.362,312.058L665.836,312.008ZM206.491,417.168L206.942,417.022L207.353,416.786L207.706,416.469L207.986,416.086L208.179,415.653L208.291,414.953L208.308,405.457L208.409,404.514L208.704,403.613L209.179,402.793L209.815,402.089L210.583,401.533L211.45,401.149L212.378,400.954L212.852,400.929L217.13,400.937L217.602,400.888L218.053,400.743L218.464,400.506L218.817,400.19L219.096,399.807L219.289,399.374L219.389,398.91L219.402,398.669L219.402,316.593L219.352,316.122L219.205,315.671L218.968,315.26L218.651,314.908L218.268,314.629L217.835,314.436L217.134,314.326L108.958,314.326L108.486,314.375L108.035,314.522L107.625,314.758L107.273,315.076L106.994,315.459L106.801,315.892L106.69,316.593L106.69,408.603L106.74,409.074L106.886,409.525L107.123,409.935L107.44,410.288L107.824,410.566L108.257,410.759L108.954,410.87L165.637,410.971L166.58,411.072L167.481,411.366L168.301,411.842L169.005,412.477L169.561,413.246L169.945,414.112L170.156,415.111L170.212,415.472L170.381,415.915L170.639,416.313L170.973,416.649L171.37,416.908L171.812,417.079L172.399,417.157L206.02,417.217L206.491,417.168ZM331.554,417.346L332.005,417.2L332.416,416.964L332.769,416.647L333.049,416.264L333.242,415.831L333.342,415.368L333.354,415.127L333.354,316.593L333.305,316.122L333.158,315.671L332.921,315.26L332.604,314.908L332.22,314.629L331.787,314.436L331.087,314.326L232.441,314.326L231.97,314.375L231.519,314.522L231.108,314.758L230.756,315.076L230.477,315.459L230.284,315.892L230.173,316.593L230.173,398.697L230.223,399.168L230.369,399.619L230.606,400.029L230.924,400.382L231.307,400.66L231.74,400.853L232.437,400.964L239.356,400.977L240.299,401.077L241.2,401.372L242.02,401.848L242.724,402.483L243.279,403.251L243.664,404.118L243.859,405.046L243.883,405.52L243.866,414.972L243.915,415.444L244.061,415.895L244.297,416.306L244.614,416.659L244.997,416.938L245.429,417.131L245.893,417.231L246.13,417.244L331.083,417.395L331.554,417.346ZM424.05,417.51L424.501,417.364L424.912,417.128L425.265,416.812L425.544,416.428L425.738,415.996L425.85,415.295L425.868,405.501L425.968,404.558L426.263,403.657L426.739,402.837L427.374,402.133L428.142,401.577L429.009,401.193L430.411,400.974L436.531,400.984L437.003,400.936L437.454,400.79L437.865,400.554L438.218,400.237L438.497,399.854L438.691,399.421L438.79,398.958L438.803,398.717L438.803,316.593L438.754,316.122L438.607,315.671L438.37,315.26L438.053,314.908L437.669,314.629L437.236,314.436L436.535,314.326L337.89,314.326L337.418,314.375L336.967,314.522L336.557,314.758L336.205,315.076L335.926,315.459L335.733,315.892L335.622,316.593L335.622,415.139L335.672,415.61L335.818,416.061L336.055,416.472L336.372,416.824L336.756,417.103L337.189,417.296L337.886,417.407L423.579,417.559L424.05,417.51ZM42.823,417.081L43.274,416.936L43.685,416.699L44.039,416.383L44.317,416L44.51,415.567L44.609,415.103L44.691,414.348L44.986,413.447L45.462,412.627L46.097,411.923L46.865,411.367L47.733,410.983L49.133,410.764L102.151,410.858L102.622,410.809L103.073,410.664L103.484,410.427L103.837,410.111L104.117,409.728L104.31,409.295L104.41,408.831L104.422,408.59L104.422,316.593L104.373,316.122L104.226,315.671L103.989,315.26L103.672,314.908L103.289,314.629L102.855,314.436L102.155,314.326L4.113,314.326L3.643,314.375L3.192,314.522L2.781,314.758L2.429,315.076L2.151,315.459L1.959,315.892L1.86,316.356L1.845,316.601L2.174,414.802L2.225,415.274L2.373,415.724L2.611,416.134L2.931,416.485L3.314,416.763L3.747,416.954L4.436,417.063L42.352,417.13L42.823,417.081ZM499.877,417.598L500.328,417.453L500.739,417.216L501.092,416.9L501.371,416.517L501.565,416.084L501.664,415.62L501.665,415.606L501.778,414.552L502.072,413.651L502.548,412.831L503.184,412.127L503.952,411.572L504.818,411.187L506.22,410.968L560.015,411.063L560.486,411.015L560.937,410.869L561.348,410.632L561.701,410.316L561.98,409.933L562.174,409.5L562.274,409.037L562.286,408.796L562.286,316.593L562.237,316.122L562.09,315.671L561.853,315.26L561.536,314.908L561.152,314.629L560.719,314.436L560.019,314.326L451.843,314.326L451.371,314.375L450.92,314.522L450.51,314.758L450.157,315.076L449.879,315.459L449.686,315.892L449.575,316.593L449.575,398.744L449.624,399.215L449.771,399.666L450.008,400.077L450.325,400.429L450.709,400.708L451.142,400.901L451.839,401.012L458.332,401.023L459.275,401.124L460.176,401.418L460.997,401.894L461.7,402.53L462.256,403.298L462.64,404.165L462.86,405.567L462.842,415.314L462.891,415.786L463.037,416.237L463.273,416.648L463.59,417.001L463.973,417.28L464.406,417.474L465.106,417.586L499.405,417.647L499.877,417.598ZM666.36,417.692L666.811,417.547L667.222,417.311L667.576,416.994L667.854,416.611L668.049,416.178L668.149,415.715L668.16,415.462L667.664,316.582L667.613,316.111L667.466,315.66L667.225,315.251L666.907,314.901L666.522,314.624L666.088,314.433L665.396,314.326L566.822,314.326L566.35,314.375L565.899,314.522L565.489,314.758L565.137,315.076L564.858,315.459L564.665,315.892L564.554,316.593L564.554,408.808L564.604,409.279L564.75,409.73L564.987,410.141L565.304,410.493L565.688,410.772L566.121,410.964L566.818,411.075L621.306,411.172L622.25,411.273L623.151,411.568L623.971,412.043L624.674,412.679L625.229,413.447L625.615,414.314L625.842,415.757L625.963,416.215L626.176,416.638L626.474,417.007L626.842,417.306L627.265,417.522L627.721,417.646L628.078,417.674L665.889,417.741L666.36,417.692Z" style="fill:rgb(211,211,211);fill-rule:nonzero;stroke:black;stroke-width:1.42px;"/>
        </g>
        <g transform="matrix(1,0,0,1,608.328,245.542)">
            <g transform="matrix(25,0,0,25,1433.51,849.946)">
            </g>
            <text x="1419.6px" y="849.946px" style="font-family:'Helvetica-Bold', 'Helvetica';font-weight:700;font-size:25px;fill:rgb(255,0,0);">2</text>
        </g>
        <g transform="matrix(1,0,0,1,608.328,347.962)">
            <g transform="matrix(25,0,0,25,1433.51,849.946)">
            </g>
            <text x="1419.6px" y="849.946px" style="font-family:'Helvetica-Bold', 'Helvetica';font-weight:700;font-size:25px;fill:rgb(255,0,0);">4</text>
        </g>
        <g transform="matrix(1,0,0,1,608.328,450.375)">
            <g transform="matrix(25,0,0,25,1433.51,849.946)">
            </g>
            <text x="1419.6px" y="849.946px" style="font-family:'Helvetica-Bold', 'Helvetica';font-weight:700;font-size:25px;fill:rgb(255,0,0);">6</text>
        </g>
        <g transform="matrix(1,0,0,1,606.406,549.105)">
            <g transform="matrix(25,0,0,25,1433.51,849.946)">
            </g>
            <text x="1419.6px" y="849.946px" style="font-family:'Helvetica-Bold', 'Helvetica';font-weight:700;font-size:25px;fill:rgb(255,0,0);">8</text>
        </g>
        <g transform="matrix(1,0,0,1,277.301,245.542)">
            <g transform="matrix(25,0,0,25,1433.51,849.946)">
            </g>
            <text x="1419.6px" y="849.946px" style="font-family:'Helvetica-Bold', 'Helvetica';font-weight:700;font-size:25px;fill:rgb(255,0,0);">1</text>
        </g>
        <g transform="matrix(1,0,0,1,277.301,347.962)">
            <g transform="matrix(25,0,0,25,1433.51,849.946)">
            </g>
            <text x="1419.6px" y="849.946px" style="font-family:'Helvetica-Bold', 'Helvetica';font-weight:700;font-size:25px;fill:rgb(255,0,0);">3</text>
        </g>
        <g transform="matrix(1,0,0,1,277.301,450.375)">
            <g transform="matrix(25,0,0,25,1433.51,849.946)">
            </g>
            <text x="1419.6px" y="849.946px" style="font-family:'Helvetica-Bold', 'Helvetica';font-weight:700;font-size:25px;fill:rgb(255,0,0);">5</text>
        </g>
        <g transform="matrix(1,0,0,1,275.379,549.105)">
            <g transform="matrix(25,0,0,25,1433.51,849.946)">
            </g>
            <text x="1419.6px" y="849.946px" style="font-family:'Helvetica-Bold', 'Helvetica';font-weight:700;font-size:25px;fill:rgb(255,0,0);">7</text>
        </g>
        <g transform="matrix(1,0,0,1,381.535,245.542)">
            <g transform="matrix(25,0,0,25,1433.51,849.946)">
            </g>
            <text x="1419.6px" y="849.946px" style="font-family:'Helvetica-Bold', 'Helvetica';font-weight:700;font-size:25px;fill:rgb(255,0,0);">2</text>
        </g>
        <g transform="matrix(1,0,0,1,381.535,347.962)">
            <g transform="matrix(25,0,0,25,1433.51,849.946)">
            </g>
            <text x="1419.6px" y="849.946px" style="font-family:'Helvetica-Bold', 'Helvetica';font-weight:700;font-size:25px;fill:rgb(255,0,0);">4</text>
        </g>
        <g transform="matrix(1,0,0,1,381.535,450.375)">
            <g transform="matrix(25,0,0,25,1433.51,849.946)">
            </g>
            <text x="1419.6px" y="849.946px" style="font-family:'Helvetica-Bold', 'Helvetica';font-weight:700;font-size:25px;fill:rgb(255,0,0);">6</text>
        </g>
        <g transform="matrix(1,0,0,1,379.613,549.105)">
            <g transform="matrix(25,0,0,25,1433.51,849.946)">
            </g>
            <text x="1419.6px" y="849.946px" style="font-family:'Helvetica-Bold', 'Helvetica';font-weight:700;font-size:25px;fill:rgb(255,0,0);">8</text>
        </g>
        <g transform="matrix(1,0,0,1,157.81,549.019)">
            <g transform="matrix(25,0,0,25,1433.51,849.946)">
            </g>
            <text x="1419.6px" y="849.946px" style="font-family:'Helvetica-Bold', 'Helvetica';font-weight:700;font-size:25px;fill:rgb(255,0,0);">8</text>
        </g>
        <g transform="matrix(1,0,0,1,498.299,245.542)">
            <g transform="matrix(25,0,0,25,1433.51,849.946)">
            </g>
            <text x="1419.6px" y="849.946px" style="font-family:'Helvetica-Bold', 'Helvetica';font-weight:700;font-size:25px;fill:rgb(255,0,0);">1</text>
        </g>
        <g transform="matrix(1,0,0,1,498.299,347.962)">
            <g transform="matrix(25,0,0,25,1433.51,849.946)">
            </g>
            <text x="1419.6px" y="849.946px" style="font-family:'Helvetica-Bold', 'Helvetica';font-weight:700;font-size:25px;fill:rgb(255,0,0);">3</text>
        </g>
        <g transform="matrix(1,0,0,1,498.299,450.375)">
            <g transform="matrix(25,0,0,25,1433.51,849.946)">
            </g>
            <text x="1419.6px" y="849.946px" style="font-family:'Helvetica-Bold', 'Helvetica';font-weight:700;font-size:25px;fill:rgb(255,0,0);">5</text>
        </g>
        <g transform="matrix(1,0,0,1,496.377,549.105)">
            <g transform="matrix(25,0,0,25,1433.51,849.946)">
            </g>
            <text x="1419.6px" y="849.946px" style="font-family:'Helvetica-Bold', 'Helvetica';font-weight:700;font-size:25px;fill:rgb(255,0,0);">7</text>
        </g>
        <g transform="matrix(1,0,0,1,47.279,245.542)">
            <g transform="matrix(25,0,0,25,1433.51,849.946)">
            </g>
            <text x="1419.6px" y="849.946px" style="font-family:'Helvetica-Bold', 'Helvetica';font-weight:700;font-size:25px;fill:rgb(255,0,0);">1</text>
        </g>
        <g transform="matrix(1,0,0,1,47.279,347.962)">
            <g transform="matrix(25,0,0,25,1433.51,849.946)">
            </g>
            <text x="1419.6px" y="849.946px" style="font-family:'Helvetica-Bold', 'Helvetica';font-weight:700;font-size:25px;fill:rgb(255,0,0);">3</text>
        </g>
        <g transform="matrix(1,0,0,1,47.279,450.375)">
            <g transform="matrix(25,0,0,25,1433.51,849.946)">
            </g>
            <text x="1419.6px" y="849.946px" style="font-family:'Helvetica-Bold', 'Helvetica';font-weight:700;font-size:25px;fill:rgb(255,0,0);">5</text>
        </g>
        <g transform="matrix(1,0,0,1,45.357,549.105)">
            <g transform="matrix(25,0,0,25,1433.51,849.946)">
            </g>
            <text x="1419.6px" y="849.946px" style="font-family:'Helvetica-Bold', 'Helvetica';font-weight:700;font-size:25px;fill:rgb(255,0,0);">7</text>
        </g>
        <g transform="matrix(1,0,0,1,157.81,245.542)">
            <g transform="matrix(25,0,0,25,1433.51,849.946)">
            </g>
            <text x="1419.6px" y="849.946px" style="font-family:'Helvetica-Bold', 'Helvetica';font-weight:700;font-size:25px;fill:rgb(255,0,0);">2</text>
        </g>
        <g transform="matrix(1,0,0,1,157.81,347.962)">
            <g transform="matrix(25,0,0,25,1433.51,849.946)">
            </g>
            <text x="1419.6px" y="849.946px" style="font-family:'Helvetica-Bold', 'Helvetica';font-weight:700;font-size:25px;fill:rgb(255,0,0);">4</text>
        </g>
        <g transform="matrix(1,0,0,1,157.81,450.375)">
            <g transform="matrix(25,0,0,25,1433.51,849.946)">
            </g>
            <text x="1419.6px" y="849.946px" style="font-family:'Helvetica-Bold', 'Helvetica';font-weight:700;font-size:25px;fill:rgb(255,0,0);">6</text>
        </g>
        <g transform="matrix(1,0,0,1,-12.8591,46.6208)">
            <text x="1455.08px" y="968.763px" style="font-family:'Helvetica';font-size:25px;">WELL_LEFT_</text>
            <g transform="matrix(25,0,0,25,1628.76,968.763)">
            </g>
            <text x="1612.09px" y="968.763px" style="font-family:'Helvetica-Bold', 'Helvetica';font-weight:700;font-size:25px;fill:rgb(255,0,0);">X</text>
        </g>
        <g transform="matrix(1,0,0,1,216.775,46.6208)">
            <text x="1433.65px" y="968.763px" style="font-family:'Helvetica';font-size:25px;">WELL_MIDDLE_</text>
            <g transform="matrix(25,0,0,25,1640.67,968.763)">
            </g>
            <text x="1623.99px" y="968.763px" style="font-family:'Helvetica-Bold', 'Helvetica';font-weight:700;font-size:25px;fill:rgb(255,0,0);">X</text>
        </g>
        <g transform="matrix(1,0,0,1,435.545,46.6208)">
            <text x="1447.42px" y="968.763px" style="font-family:'Helvetica';font-size:25px;">WELL_RIGHT_</text>
            <g transform="matrix(25,0,0,25,1637.76,968.763)">
            </g>
            <text x="1621.08px" y="968.763px" style="font-family:'Helvetica-Bold', 'Helvetica';font-weight:700;font-size:25px;fill:rgb(255,0,0);">X</text>
        </g>
    </g>
</svg>
